<svg width="41" height="40" viewBox="0 0 41 40" fill="none" xmlns="http://www.w3.org/2000/svg">
<g clip-path="url(#clip0_60_22)">
<path d="M20.5002 10C19.1816 10 17.8927 10.391 16.7964 11.1235C15.7 11.8561 14.8456 12.8973 14.341 14.1154C13.8364 15.3336 13.7044 16.6741 13.9616 17.9673C14.2188 19.2605 14.8538 20.4484 15.7861 21.3807C16.7185 22.3131 17.9064 22.948 19.1996 23.2052C20.4928 23.4625 21.8332 23.3304 23.0514 22.8259C24.2696 22.3213 25.3108 21.4668 26.0433 20.3705C26.7758 19.2741 27.1668 17.9852 27.1668 16.6667C27.1668 14.8986 26.4645 13.2029 25.2142 11.9526C23.964 10.7024 22.2683 10 20.5002 10ZM20.5002 20C19.8409 20 19.1964 19.8045 18.6483 19.4382C18.1001 19.072 17.6729 18.5514 17.4206 17.9423C17.1683 17.3332 17.1023 16.663 17.2309 16.0164C17.3595 15.3698 17.677 14.7758 18.1431 14.3096C18.6093 13.8435 19.2033 13.526 19.8499 13.3974C20.4965 13.2688 21.1667 13.3348 21.7758 13.5871C22.3849 13.8394 22.9055 14.2666 23.2717 14.8148C23.638 15.3629 23.8335 16.0074 23.8335 16.6667C23.8335 17.5507 23.4823 18.3986 22.8572 19.0237C22.2321 19.6488 21.3842 20 20.5002 20Z" fill="#374957"/>
<path d="M20.4999 40.0005C19.0964 40.0077 17.7117 39.6786 16.4616 39.0406C15.2116 38.4027 14.1325 37.4745 13.3149 36.3339C6.96321 27.5722 3.74154 20.9855 3.74154 16.7555C3.74154 12.3109 5.50714 8.04839 8.64994 4.90559C11.7927 1.7628 16.0553 -0.00280762 20.4999 -0.00280762C24.9445 -0.00280762 29.207 1.7628 32.3498 4.90559C35.4926 8.04839 37.2582 12.3109 37.2582 16.7555C37.2582 20.9855 34.0365 27.5722 27.6849 36.3339C26.8672 37.4745 25.7882 38.4027 24.5381 39.0406C23.288 39.6786 21.9033 40.0077 20.4999 40.0005ZM20.4999 3.63553C17.0206 3.6395 13.6849 5.0234 11.2247 7.48365C8.76442 9.94389 7.38051 13.2796 7.37654 16.7589C7.37654 20.1089 10.5315 26.3039 16.2582 34.2022C16.7444 34.8718 17.3822 35.4168 18.1194 35.7926C18.8566 36.1684 19.6724 36.3644 20.4999 36.3644C21.3274 36.3644 22.1431 36.1684 22.8804 35.7926C23.6176 35.4168 24.2554 34.8718 24.7415 34.2022C30.4682 26.3039 33.6232 20.1089 33.6232 16.7589C33.6192 13.2796 32.2353 9.94389 29.7751 7.48365C27.3148 5.0234 23.9792 3.6395 20.4999 3.63553Z" fill="#374957"/>
</g>
<defs>
<clipPath id="clip0_60_22">
<rect width="40" height="40" fill="white" transform="translate(0.5)"/>
</clipPath>
</defs>
</svg>
