<svg width="15" height="21" viewBox="0 0 15 21" fill="none" xmlns="http://www.w3.org/2000/svg">
<path d="M7.49966 10.1942C6.51079 10.1942 5.54412 9.90092 4.7219 9.35153C3.89968 8.80214 3.25883 8.02127 2.88041 7.10767C2.50198 6.19406 2.40297 5.18876 2.59589 4.21889C2.78881 3.24901 3.265 2.35812 3.96424 1.65888C4.66348 0.95964 5.55437 0.483451 6.52424 0.290531C7.49412 0.0976107 8.49942 0.196624 9.41302 0.575051C10.3266 0.953478 11.1075 1.59432 11.6569 2.41654C12.2063 3.23876 12.4995 4.20543 12.4995 5.19431C12.4982 6.51994 11.971 7.79091 11.0336 8.72827C10.0963 9.66564 8.8253 10.1928 7.49966 10.1942ZM7.49966 1.86108C6.84041 1.86108 6.19597 2.05657 5.64782 2.42283C5.09967 2.78909 4.67244 3.30967 4.42016 3.91874C4.16788 4.5278 4.10187 5.19801 4.23048 5.84459C4.35909 6.49117 4.67655 7.0851 5.14271 7.55126C5.60887 8.01742 6.2028 8.33488 6.84938 8.46349C7.49597 8.59211 8.16617 8.5261 8.77524 8.27381C9.38431 8.02153 9.90488 7.5943 10.2711 7.04615C10.6374 6.498 10.8329 5.85356 10.8329 5.19431C10.8329 4.31028 10.4817 3.46246 9.85662 2.83736C9.23151 2.21225 8.38369 1.86108 7.49966 1.86108Z" fill="#374957"/>
<path d="M7.49974 11.8614C9.48813 11.8636 11.3944 12.6544 12.8004 14.0604C14.2064 15.4664 14.9973 17.3728 14.9995 19.3611C14.9995 19.5822 14.9117 19.7941 14.7554 19.9504C14.5992 20.1067 14.3872 20.1945 14.1662 20.1945C13.9452 20.1945 13.7332 20.1067 13.577 19.9504C13.4207 19.7941 13.3329 19.5822 13.3329 19.3611C13.3329 17.8141 12.7183 16.3304 11.6244 15.2365C10.5305 14.1426 9.04679 13.528 7.49974 13.528C5.95269 13.528 4.46901 14.1426 3.37508 15.2365C2.28115 16.3304 1.66658 17.8141 1.66658 19.3611C1.66658 19.5822 1.57879 19.7941 1.42251 19.9504C1.26624 20.1067 1.05428 20.1945 0.833277 20.1945C0.61227 20.1945 0.400314 20.1067 0.244039 19.9504C0.0877628 19.7941 -3.05176e-05 19.5822 -3.05176e-05 19.3611C0.00217438 17.3728 0.793035 15.4664 2.19904 14.0604C3.60504 12.6544 5.51135 11.8636 7.49974 11.8614Z" fill="#374957"/>
</svg>
