<svg width="20" height="19" viewBox="0 0 20 19" fill="none" xmlns="http://www.w3.org/2000/svg">
<path d="M14.581 0.621521C13.643 0.636111 12.7255 0.897954 11.921 1.38061C11.1166 1.86326 10.4538 2.54963 9.99951 3.37041C9.54523 2.54963 8.88241 1.86326 8.07798 1.38061C7.27356 0.897954 6.35602 0.636111 5.41803 0.621521C3.92275 0.686487 2.51395 1.34061 1.49943 2.44098C0.4849 3.54135 -0.0528917 4.99853 0.00354434 6.49415C0.00354434 10.2818 3.99027 14.4185 7.33392 17.2232C8.08047 17.8505 9.02437 18.1945 9.99951 18.1945C10.9747 18.1945 11.9186 17.8505 12.6651 17.2232C16.0088 14.4185 19.9955 10.2818 19.9955 6.49415C20.0519 4.99853 19.5141 3.54135 18.4996 2.44098C17.4851 1.34061 16.0763 0.686487 14.581 0.621521ZM11.5947 15.9487C11.1482 16.3247 10.5832 16.5309 9.99951 16.5309C9.41579 16.5309 8.85082 16.3247 8.40432 15.9487C4.12438 12.3576 1.66954 8.91234 1.66954 6.49415C1.6126 5.44017 1.97472 4.40644 2.67694 3.6184C3.37915 2.83035 4.36448 2.35195 5.41803 2.28752C6.47157 2.35195 7.4569 2.83035 8.15912 3.6184C8.86133 4.40644 9.22346 5.44017 9.16651 6.49415C9.16651 6.71508 9.25428 6.92695 9.41049 7.08317C9.56671 7.23939 9.77859 7.32715 9.99951 7.32715C10.2204 7.32715 10.4323 7.23939 10.5885 7.08317C10.7447 6.92695 10.8325 6.71508 10.8325 6.49415C10.7756 5.44017 11.1377 4.40644 11.8399 3.6184C12.5421 2.83035 13.5275 2.35195 14.581 2.28752C15.6345 2.35195 16.6199 2.83035 17.3221 3.6184C18.0243 4.40644 18.3864 5.44017 18.3295 6.49415C18.3295 8.91234 15.8746 12.3576 11.5947 15.9453V15.9487Z" fill="#374957"/>
</svg>
