<svg width="5" height="18" viewBox="0 0 5 18" fill="none" xmlns="http://www.w3.org/2000/svg">
<path d="M1.496 18C1.08 18 0.776667 17.9133 0.586 17.74C0.412667 17.5493 0.326 17.2633 0.326 16.882V1.464C0.326 1.08267 0.412667 0.796666 0.586 0.605999C0.776667 0.415333 1.08 0.32 1.496 0.32H3.446C3.87933 0.32 4.18267 0.415333 4.356 0.605999C4.52933 0.779332 4.616 1.06533 4.616 1.464V16.882C4.616 17.2633 4.52933 17.5493 4.356 17.74C4.18267 17.9133 3.87933 18 3.446 18H1.496Z" fill="#FAF2A8"/>
<path d="M0.586 17.74L0.364018 17.9418L0.373628 17.9524L0.384198 17.962L0.586 17.74ZM0.586 0.605999L0.373868 0.393867L0.36882 0.398915L0.364018 0.404197L0.586 0.605999ZM4.356 0.605999L4.13402 0.807801L4.13882 0.813084L4.14387 0.818131L4.356 0.605999ZM4.356 17.74L4.56813 17.9521L4.57318 17.9471L4.57798 17.9418L4.356 17.74ZM1.496 17.7C1.11128 17.7 0.897901 17.6181 0.787802 17.518L0.384198 17.962C0.655432 18.2086 1.04872 18.3 1.496 18.3V17.7ZM0.807982 17.5382C0.704292 17.4241 0.626 17.2238 0.626 16.882H0.0260001C0.0260001 17.3029 0.121041 17.6745 0.364018 17.9418L0.807982 17.5382ZM0.626 16.882V1.464H0.0260001V16.882H0.626ZM0.626 1.464C0.626 1.12221 0.704292 0.92186 0.807982 0.807801L0.364018 0.404197C0.121041 0.671471 0.0260001 1.04312 0.0260001 1.464H0.626ZM0.798132 0.818131C0.908446 0.707817 1.11737 0.62 1.496 0.62V0.0199998C1.04263 0.0199998 0.644887 0.122849 0.373868 0.393867L0.798132 0.818131ZM1.496 0.62H3.446V0.0199998H1.496V0.62ZM3.446 0.62C3.84988 0.62 4.04625 0.711261 4.13402 0.807801L4.57798 0.404197C4.31908 0.119405 3.90879 0.0199998 3.446 0.0199998V0.62ZM4.14387 0.818131C4.23442 0.908688 4.316 1.09727 4.316 1.464H4.916C4.916 1.03339 4.82424 0.649977 4.56813 0.393867L4.14387 0.818131ZM4.316 1.464V16.882H4.916V1.464H4.316ZM4.316 16.882C4.316 17.2238 4.23771 17.4241 4.13402 17.5382L4.57798 17.9418C4.82096 17.6745 4.916 17.3029 4.916 16.882H4.316ZM4.14387 17.5279C4.05691 17.6148 3.85602 17.7 3.446 17.7V18.3C3.90264 18.3 4.30842 18.2118 4.56813 17.9521L4.14387 17.5279ZM3.446 17.7H1.496V18.3H3.446V17.7Z" fill="#454545"/>
</svg>
