<svg width="14" height="18" viewBox="0 0 14 18" fill="none" xmlns="http://www.w3.org/2000/svg">
<path d="M1.496 18C1.08 18 0.776667 17.9133 0.586 17.74C0.412667 17.5493 0.326 17.2633 0.326 16.882V1.464C0.326 1.08267 0.412667 0.796666 0.586 0.605999C0.776667 0.415333 1.08 0.32 1.496 0.32H3.446C3.87933 0.32 4.18267 0.415333 4.356 0.605999C4.52933 0.779332 4.616 1.06533 4.616 1.464V14.854H11.948C12.364 14.854 12.65 14.9407 12.806 15.114C12.962 15.2873 13.04 15.5733 13.04 15.972V16.908C13.04 17.3067 12.962 17.5927 12.806 17.766C12.65 17.922 12.364 18 11.948 18H1.496Z" fill="#B3EBE4"/>
<path d="M0.586 17.74L0.364018 17.9418L0.373628 17.9524L0.384198 17.962L0.586 17.74ZM0.586 0.605999L0.373868 0.393867L0.36882 0.398915L0.364018 0.404197L0.586 0.605999ZM4.356 0.605999L4.13402 0.807801L4.13882 0.813084L4.14387 0.818131L4.356 0.605999ZM4.616 14.854H4.316V15.154H4.616V14.854ZM12.806 15.114L13.029 14.9133L13.029 14.9133L12.806 15.114ZM12.806 17.766L13.0181 17.9781L13.0237 17.9726L13.029 17.9667L12.806 17.766ZM1.496 17.7C1.11128 17.7 0.897901 17.6181 0.787802 17.518L0.384198 17.962C0.655432 18.2086 1.04872 18.3 1.496 18.3V17.7ZM0.807982 17.5382C0.704292 17.4241 0.626 17.2238 0.626 16.882H0.0260001C0.0260001 17.3029 0.121041 17.6745 0.364018 17.9418L0.807982 17.5382ZM0.626 16.882V1.464H0.0260001V16.882H0.626ZM0.626 1.464C0.626 1.12221 0.704292 0.92186 0.807982 0.807801L0.364018 0.404197C0.121041 0.671471 0.0260001 1.04312 0.0260001 1.464H0.626ZM0.798132 0.818131C0.908446 0.707817 1.11737 0.62 1.496 0.62V0.0199998C1.04263 0.0199998 0.644887 0.122849 0.373868 0.393867L0.798132 0.818131ZM1.496 0.62H3.446V0.0199998H1.496V0.62ZM3.446 0.62C3.84988 0.62 4.04625 0.711261 4.13402 0.807801L4.57798 0.404197C4.31908 0.119405 3.90879 0.0199998 3.446 0.0199998V0.62ZM4.14387 0.818131C4.23442 0.908688 4.316 1.09727 4.316 1.464H4.916C4.916 1.03339 4.82424 0.649977 4.56813 0.393867L4.14387 0.818131ZM4.316 1.464V14.854H4.916V1.464H4.316ZM4.616 15.154H11.948V14.554H4.616V15.154ZM11.948 15.154C12.3411 15.154 12.5152 15.2394 12.583 15.3147L13.029 14.9133C12.7848 14.6419 12.3869 14.554 11.948 14.554V15.154ZM12.583 15.3147C12.6645 15.4053 12.74 15.599 12.74 15.972H13.34C13.34 15.5477 13.2595 15.1694 13.029 14.9133L12.583 15.3147ZM12.74 15.972V16.908H13.34V15.972H12.74ZM12.74 16.908C12.74 17.281 12.6645 17.4747 12.583 17.5653L13.029 17.9667C13.2595 17.7106 13.34 17.3323 13.34 16.908H12.74ZM12.5939 17.5539C12.5268 17.6209 12.3474 17.7 11.948 17.7V18.3C12.3806 18.3 12.7732 18.2231 13.0181 17.9781L12.5939 17.5539ZM11.948 17.7H1.496V18.3H11.948V17.7Z" fill="#454545"/>
</svg>
