<svg width="20" height="21" viewBox="0 0 20 21" fill="none" xmlns="http://www.w3.org/2000/svg">
<path d="M19.7663 18.7834L14.7962 13.8133C16.1506 12.1568 16.8165 10.0431 16.6562 7.90943C16.4959 5.77574 15.5216 3.78529 13.9349 2.34979C12.3482 0.914299 10.2704 0.143584 8.13136 0.197066C5.99233 0.250549 3.95568 1.12414 2.44268 2.63714C0.929679 4.15013 0.0560909 6.18678 0.00260835 8.32582C-0.0508742 10.4649 0.719841 12.5426 2.15534 14.1293C3.59083 15.7161 5.58128 16.6903 7.71497 16.8506C9.84866 17.011 11.9623 16.345 13.6188 14.9906L18.5889 19.9607C18.7459 20.1124 18.9563 20.1963 19.1746 20.1944C19.3929 20.1925 19.6017 20.105 19.7561 19.9506C19.9105 19.7962 19.9981 19.5874 20 19.369C20.0019 19.1507 19.9179 18.9404 19.7663 18.7834ZM8.35314 15.2088C7.03568 15.2088 5.74781 14.8181 4.65238 14.0862C3.55695 13.3542 2.70317 12.3139 2.199 11.0967C1.69483 9.87956 1.56292 8.54021 1.81994 7.24807C2.07697 5.95592 2.71138 4.76901 3.64297 3.83743C4.57455 2.90584 5.76146 2.27142 7.05361 2.0144C8.34575 1.75738 9.6851 1.88929 10.9023 2.39346C12.1194 2.89763 13.1598 3.75141 13.8917 4.84684C14.6237 5.94227 15.0143 7.23014 15.0143 8.5476C15.0124 10.3137 14.3099 12.0068 13.0611 13.2556C11.8123 14.5044 10.1192 15.2068 8.35314 15.2088Z" fill="#374957"/>
</svg>
