<svg width="41" height="37" viewBox="0 0 41 37" fill="none" xmlns="http://www.w3.org/2000/svg">
<path d="M32.1667 0H8.83333C6.62401 0.00264643 4.50593 0.88147 2.9437 2.4437C1.38147 4.00593 0.502646 6.12401 0.5 8.33333L0.5 28.3333C0.502646 30.5427 1.38147 32.6607 2.9437 34.223C4.50593 35.7852 6.62401 36.664 8.83333 36.6667H32.1667C34.376 36.664 36.4941 35.7852 38.0563 34.223C39.6185 32.6607 40.4974 30.5427 40.5 28.3333V8.33333C40.4974 6.12401 39.6185 4.00593 38.0563 2.4437C36.4941 0.88147 34.376 0.00264643 32.1667 0ZM8.83333 3.33333H32.1667C33.1646 3.3353 34.1392 3.63586 34.9649 4.19634C35.7906 4.75682 36.4298 5.55158 36.8 6.47833L24.0367 19.2433C23.0974 20.1789 21.8257 20.7041 20.5 20.7041C19.1743 20.7041 17.9026 20.1789 16.9633 19.2433L4.2 6.47833C4.57025 5.55158 5.20936 4.75682 6.03508 4.19634C6.8608 3.63586 7.83536 3.3353 8.83333 3.33333ZM32.1667 33.3333H8.83333C7.50725 33.3333 6.23548 32.8066 5.2978 31.8689C4.36012 30.9312 3.83333 29.6594 3.83333 28.3333V10.8333L14.6067 21.6C16.171 23.1604 18.2904 24.0367 20.5 24.0367C22.7096 24.0367 24.829 23.1604 26.3933 21.6L37.1667 10.8333V28.3333C37.1667 29.6594 36.6399 30.9312 35.7022 31.8689C34.7645 32.8066 33.4927 33.3333 32.1667 33.3333Z" fill="#374957"/>
</svg>
